<svg width="22" height="21" viewBox="0 0 22 21" fill="none" xmlns="http://www.w3.org/2000/svg">
<path d="M13 17.5C16.771 17.5 18.657 17.5 19.828 16.328C21 15.157 21 13.271 21 9.5C21 5.729 21 3.843 19.828 2.672C18.657 1.5 16.771 1.5 13 1.5H9C5.229 1.5 3.343 1.5 2.172 2.672C1 3.843 1 5.729 1 9.5C1 13.271 1 15.157 2.172 16.328C2.825 16.982 3.7 17.271 5 17.398" stroke="#2C2B3C" stroke-width="2" stroke-linecap="round" stroke-linejoin="round"/>
<path d="M13.0002 17.5C11.7642 17.5 10.4022 18 9.15924 18.645C7.16124 19.682 6.16224 20.201 5.67024 19.87C5.17824 19.54 5.27124 18.515 5.45824 16.466L5.50024 16" stroke="#2C2B3C" stroke-width="2" stroke-linecap="round"/>
</svg>
