<svg width="13" height="14" viewBox="0 0 13 14" fill="none" xmlns="http://www.w3.org/2000/svg">
<path d="M12 11.6666H4M0 2.33325H2.66667H0ZM12 2.33325H5.33333H12ZM0 6.99992H8H0ZM12 6.99992H10.6667H12ZM0 11.6666H1.33333H0Z" stroke="#2C2B3C" stroke-linecap="round"/>
<path d="M3.99984 3.66667C4.73622 3.66667 5.33317 3.06971 5.33317 2.33333C5.33317 1.59695 4.73622 1 3.99984 1C3.26346 1 2.6665 1.59695 2.6665 2.33333C2.6665 3.06971 3.26346 3.66667 3.99984 3.66667Z" stroke="#2C2B3C" stroke-linecap="round"/>
<path d="M9.33333 8.33341C10.0697 8.33341 10.6667 7.73646 10.6667 7.00008C10.6667 6.2637 10.0697 5.66675 9.33333 5.66675C8.59695 5.66675 8 6.2637 8 7.00008C8 7.73646 8.59695 8.33341 9.33333 8.33341Z" stroke="#2C2B3C" stroke-linecap="round"/>
<path d="M2.66683 12.9999C3.40321 12.9999 4.00016 12.403 4.00016 11.6666C4.00016 10.9302 3.40321 10.3333 2.66683 10.3333C1.93045 10.3333 1.3335 10.9302 1.3335 11.6666C1.3335 12.403 1.93045 12.9999 2.66683 12.9999Z" stroke="#2C2B3C" stroke-linecap="round"/>
</svg>
