<svg width="94" height="32" viewBox="0 0 94 32" fill="none" xmlns="http://www.w3.org/2000/svg">
<path fill-rule="evenodd" clip-rule="evenodd" d="M10.5232 0.962365C11.553 0.536705 12.6861 0.425333 13.7793 0.642332C14.8725 0.859332 15.8766 1.39496 16.6647 2.18147C17.4529 2.96799 17.9896 3.97007 18.2071 5.061C18.4245 6.15193 18.3129 7.28271 17.8864 8.31035C17.4598 9.33798 16.7375 10.2163 15.8108 10.8343C14.884 11.4522 13.7944 11.7821 12.6799 11.7821H2.81775C2.21132 11.7821 1.67294 11.3948 1.48117 10.8207C1.2894 10.2466 1.48728 9.61442 1.97242 9.25132L7.09331 5.41855C7.20631 4.56853 7.51311 3.7521 7.99411 3.0337C8.61335 2.10885 9.49349 1.38802 10.5232 0.962365ZM13.2296 3.40025C12.683 3.29175 12.1164 3.34744 11.6015 3.56027C11.0867 3.7731 10.6466 4.13351 10.337 4.59594C10.0274 5.05836 9.86211 5.60202 9.86211 6.15817C9.86211 6.60071 9.65332 7.01743 9.29856 7.28295L7.04436 8.97012H12.6799C13.2372 8.97012 13.7819 8.8052 14.2453 8.49622C14.7087 8.18724 15.0698 7.74808 15.2831 7.23426C15.4964 6.72044 15.5522 6.15505 15.4435 5.60959C15.3347 5.06412 15.0664 4.56308 14.6723 4.16982C14.2782 3.77656 13.7762 3.50875 13.2296 3.40025ZM23.2031 6.58627C24.2328 6.16061 25.366 6.04923 26.4591 6.26623C27.5523 6.48323 28.5565 7.01886 29.3446 7.80538C30.1327 8.59189 30.6695 9.59398 30.8869 10.6849C31.1044 11.7758 30.9928 12.9066 30.5662 13.9342C30.1397 14.9619 29.4174 15.8402 28.4906 16.4582C27.5639 17.0761 26.4743 17.406 25.3597 17.406H1.40887C0.630774 17.406 0 16.7765 0 16C0 15.2235 0.630774 14.594 1.40887 14.594H25.3597C25.917 14.594 26.4618 14.4291 26.9252 14.1201C27.3885 13.8111 27.7497 13.372 27.963 12.8582C28.1762 12.3443 28.232 11.779 28.1233 11.2335C28.0146 10.688 27.7462 10.187 27.3522 9.79372C26.9581 9.40047 26.456 9.13265 25.9094 9.02415C25.3628 8.91565 24.7963 8.97134 24.2814 9.18417C23.7665 9.397 23.3265 9.75742 23.0168 10.2198C22.7072 10.6823 22.542 11.2259 22.542 11.7821C22.542 12.5586 21.9112 13.188 21.1331 13.188C20.355 13.188 19.7242 12.5586 19.7242 11.7821C19.7242 10.6698 20.0547 9.58245 20.674 8.6576C21.2932 7.73275 22.1733 7.01193 23.2031 6.58627ZM2.84035 21.373C2.96188 20.7042 3.54548 20.2179 4.22662 20.2179H19.7242C20.8388 20.2179 21.9284 20.5478 22.8551 21.1657C23.7819 21.7837 24.5042 22.662 24.9307 23.6897C25.3573 24.7173 25.4689 25.8481 25.2514 26.939C25.034 28.0299 24.4972 29.032 23.7091 29.8185C22.921 30.605 21.9168 31.1407 20.8236 31.3577C19.7305 31.5747 18.5974 31.4633 17.5676 31.0376C16.5379 30.612 15.6577 29.8911 15.0385 28.9663C14.6084 28.324 14.3176 27.6033 14.1801 26.8504L3.73193 22.9404C3.09416 22.7017 2.71882 22.0419 2.84035 21.373ZM11.9961 23.0299L15.9923 24.5254C16.5422 24.7312 16.9065 25.2558 16.9065 25.8418C16.9065 26.398 17.0717 26.9416 17.3813 27.4041C17.691 27.8665 18.131 28.2269 18.6459 28.4397C19.1608 28.6526 19.7273 28.7082 20.2739 28.5997C20.8205 28.4912 21.3226 28.2234 21.7167 27.8302C22.1107 27.4369 22.3791 26.9359 22.4878 26.3904C22.5965 25.845 22.5407 25.2796 22.3275 24.7657C22.1142 24.2519 21.753 23.8128 21.2897 23.5038C20.8263 23.1948 20.2815 23.0299 19.7242 23.0299H11.9961Z" fill="#121420"/>
<path d="M48.6765 4.56942C48.6765 5.14118 48.5451 5.66608 48.2821 6.14411C48.0191 6.61277 47.6152 6.99238 47.0704 7.28295C46.5257 7.57352 45.8494 7.71881 45.0417 7.71881H43.5483V11.2619H41.1391V1.39192H45.0417C45.8306 1.39192 46.4975 1.52783 47.0423 1.79965C47.587 2.07147 47.9956 2.4464 48.268 2.92443C48.5404 3.40246 48.6765 3.95079 48.6765 4.56942ZM44.8585 5.80668C45.3187 5.80668 45.6616 5.69889 45.887 5.4833C46.1124 5.26772 46.2251 4.96309 46.2251 4.56942C46.2251 4.17575 46.1124 3.87112 45.887 3.65554C45.6616 3.43995 45.3187 3.33216 44.8585 3.33216H43.5483V5.80668H44.8585Z" fill="#121420"/>
<path d="M53.5093 11.3743C52.7391 11.3743 52.0441 11.2103 51.4242 10.8822C50.8137 10.5542 50.33 10.0855 49.973 9.47627C49.6255 8.86702 49.4518 8.15466 49.4518 7.33919C49.4518 6.5331 49.6302 5.82543 49.9871 5.21617C50.344 4.59754 50.8325 4.12419 51.4524 3.79613C52.0723 3.46807 52.7673 3.30404 53.5375 3.30404C54.3077 3.30404 55.0027 3.46807 55.6226 3.79613C56.2425 4.12419 56.7309 4.59754 57.0878 5.21617C57.4448 5.82543 57.6232 6.5331 57.6232 7.33919C57.6232 8.14529 57.4401 8.85765 57.0738 9.47627C56.7168 10.0855 56.2237 10.5542 55.5944 10.8822C54.9745 11.2103 54.2795 11.3743 53.5093 11.3743ZM53.5093 9.2935C53.9695 9.2935 54.3593 9.12478 54.6787 8.78735C55.0074 8.44991 55.1718 7.96719 55.1718 7.33919C55.1718 6.71119 55.0121 6.22847 54.6928 5.89104C54.3828 5.5536 53.9977 5.38489 53.5375 5.38489C53.0679 5.38489 52.6781 5.5536 52.3681 5.89104C52.0582 6.2191 51.9032 6.70182 51.9032 7.33919C51.9032 7.96719 52.0535 8.44991 52.354 8.78735C52.664 9.12478 53.0491 9.2935 53.5093 9.2935Z" fill="#121420"/>
<path d="M61.3105 4.52724C61.5453 4.16169 61.8694 3.86643 62.2826 3.64148C62.6959 3.41652 63.1796 3.30404 63.7338 3.30404C64.3818 3.30404 64.9689 3.46807 65.4949 3.79613C66.0208 4.12419 66.4341 4.59285 66.7347 5.20211C67.0446 5.81137 67.1996 6.51904 67.1996 7.32513C67.1996 8.13122 67.0446 8.84359 66.7347 9.46222C66.4341 10.0715 66.0208 10.5448 65.4949 10.8822C64.9689 11.2103 64.3818 11.3743 63.7338 11.3743C63.189 11.3743 62.7053 11.2619 62.2826 11.0369C61.8694 10.812 61.5453 10.5214 61.3105 10.1652V15.0018H58.9013V3.41652H61.3105V4.52724ZM64.7482 7.32513C64.7482 6.72525 64.5791 6.25659 64.241 5.91916C63.9122 5.57235 63.5037 5.39895 63.0152 5.39895C62.5362 5.39895 62.1276 5.57235 61.7895 5.91916C61.4608 6.26596 61.2964 6.73931 61.2964 7.33919C61.2964 7.93908 61.4608 8.41242 61.7895 8.75923C62.1276 9.10603 62.5362 9.27944 63.0152 9.27944C63.4943 9.27944 63.9028 9.10603 64.241 8.75923C64.5791 8.40305 64.7482 7.92502 64.7482 7.32513Z" fill="#121420"/>
<path d="M70.8727 4.52724C71.1075 4.16169 71.4315 3.86643 71.8448 3.64148C72.2581 3.41652 72.7418 3.30404 73.2959 3.30404C73.944 3.30404 74.5311 3.46807 75.057 3.79613C75.583 4.12419 75.9963 4.59285 76.2968 5.20211C76.6068 5.81137 76.7618 6.51904 76.7618 7.32513C76.7618 8.13122 76.6068 8.84359 76.2968 9.46222C75.9963 10.0715 75.583 10.5448 75.057 10.8822C74.5311 11.2103 73.944 11.3743 73.2959 11.3743C72.7512 11.3743 72.2675 11.2619 71.8448 11.0369C71.4315 10.812 71.1075 10.5214 70.8727 10.1652V15.0018H68.4635V3.41652H70.8727V4.52724ZM74.3103 7.32513C74.3103 6.72525 74.1413 6.25659 73.8031 5.91916C73.4744 5.57235 73.0658 5.39895 72.5774 5.39895C72.0984 5.39895 71.6898 5.57235 71.3517 5.91916C71.023 6.26596 70.8586 6.73931 70.8586 7.33919C70.8586 7.93908 71.023 8.41242 71.3517 8.75923C71.6898 9.10603 72.0984 9.27944 72.5774 9.27944C73.0564 9.27944 73.465 9.10603 73.8031 8.75923C74.1413 8.40305 74.3103 7.92502 74.3103 7.32513Z" fill="#121420"/>
<path d="M79.2373 2.60105C78.8146 2.60105 78.4671 2.4792 78.1947 2.2355C77.9318 1.98243 77.8003 1.67311 77.8003 1.30756C77.8003 0.932631 77.9318 0.623316 78.1947 0.379613C78.4671 0.126538 78.8146 0 79.2373 0C79.6506 0 79.9887 0.126538 80.2517 0.379613C80.5241 0.623316 80.6603 0.932631 80.6603 1.30756C80.6603 1.67311 80.5241 1.98243 80.2517 2.2355C79.9887 2.4792 79.6506 2.60105 79.2373 2.60105ZM80.4348 3.41652V11.2619H78.0257V3.41652H80.4348Z" fill="#121420"/>
<path d="M86.9709 3.33216C87.8914 3.33216 88.624 3.6321 89.1688 4.23199C89.7229 4.8225 90 5.63796 90 6.67838V11.2619H87.6049V7.00176C87.6049 6.47686 87.4687 6.06913 87.1963 5.77856C86.924 5.48799 86.5577 5.34271 86.0974 5.34271C85.6372 5.34271 85.2709 5.48799 84.9985 5.77856C84.7261 6.06913 84.5899 6.47686 84.5899 7.00176V11.2619H82.1807V3.41652H84.5899V4.45694C84.8341 4.11014 85.1629 3.83831 85.5761 3.64148C85.9894 3.43527 86.4543 3.33216 86.9709 3.33216Z" fill="#121420"/>
<path d="M44.7176 28.232C43.9944 28.232 43.3463 28.1148 42.7734 27.8805C42.2004 27.6462 41.7402 27.2994 41.3927 26.8401C41.0545 26.3808 40.8761 25.8278 40.8573 25.181H43.4215C43.459 25.5466 43.5858 25.8278 43.8018 26.0246C44.0179 26.2121 44.2997 26.3058 44.6472 26.3058C45.0041 26.3058 45.2859 26.2261 45.4925 26.0668C45.6991 25.8981 45.8024 25.6684 45.8024 25.3779C45.8024 25.1342 45.7179 24.9326 45.5489 24.7733C45.3892 24.6139 45.1872 24.4827 44.943 24.3796C44.7082 24.2765 44.3701 24.1593 43.9286 24.0281C43.29 23.8313 42.7687 23.6344 42.3648 23.4376C41.9609 23.2408 41.6134 22.9502 41.3222 22.5659C41.0311 22.1816 40.8855 21.6801 40.8855 21.0615C40.8855 20.1429 41.2189 19.4259 41.8858 18.9104C42.5526 18.3855 43.4215 18.123 44.4922 18.123C45.5817 18.123 46.4599 18.3855 47.1268 18.9104C47.7937 19.4259 48.1506 20.1476 48.1975 21.0756H45.5911C45.5723 20.7569 45.4549 20.5085 45.2389 20.3304C45.0229 20.1429 44.7458 20.0492 44.4077 20.0492C44.1165 20.0492 43.8817 20.1289 43.7032 20.2882C43.5248 20.4382 43.4355 20.6585 43.4355 20.949C43.4355 21.2677 43.5858 21.5161 43.8864 21.6942C44.1869 21.8723 44.6566 22.0644 45.2953 22.2706C45.9339 22.4862 46.4505 22.6924 46.845 22.8893C47.2489 23.0861 47.5964 23.372 47.8876 23.7469C48.1787 24.1219 48.3243 24.6046 48.3243 25.1951C48.3243 25.7575 48.1787 26.2683 47.8876 26.7276C47.6058 27.1869 47.1925 27.5524 46.6478 27.8243C46.103 28.0961 45.4596 28.232 44.7176 28.232Z" fill="#121420"/>
<path d="M61.092 20.2882L58.9646 28.1336H56.3018L55.062 23.0439L53.78 28.1336H51.1313L48.9898 20.2882H51.399L52.512 25.8981L53.8363 20.2882H56.3864L57.7248 25.8699L58.8237 20.2882H61.092Z" fill="#121420"/>
<path d="M63.2224 19.4728C62.7997 19.4728 62.4522 19.3509 62.1798 19.1072C61.9168 18.8541 61.7853 18.5448 61.7853 18.1793C61.7853 17.8043 61.9168 17.495 62.1798 17.2513C62.4522 16.9982 62.7997 16.8717 63.2224 16.8717C63.6357 16.8717 63.9738 16.9982 64.2368 17.2513C64.5092 17.495 64.6453 17.8043 64.6453 18.1793C64.6453 18.5448 64.5092 18.8541 64.2368 19.1072C63.9738 19.3509 63.6357 19.4728 63.2224 19.4728ZM64.4199 20.2882V28.1336H62.0108V20.2882H64.4199Z" fill="#121420"/>
<path d="M70.956 20.2039C71.8765 20.2039 72.6091 20.5038 73.1538 21.1037C73.708 21.6942 73.9851 22.5097 73.9851 23.5501V28.1336H71.59V23.8735C71.59 23.3486 71.4538 22.9408 71.1814 22.6503C70.909 22.3597 70.5427 22.2144 70.0825 22.2144C69.6223 22.2144 69.256 22.3597 68.9836 22.6503C68.7112 22.9408 68.575 23.3486 68.575 23.8735V28.1336H66.1658V20.2882H68.575V21.3286C68.8192 20.9818 69.1479 20.71 69.5612 20.5132C69.9745 20.307 70.4394 20.2039 70.956 20.2039Z" fill="#121420"/>
<path d="M78.646 20.1757C79.2002 20.1757 79.6839 20.2882 80.0972 20.5132C80.5198 20.7381 80.8439 21.0334 81.0693 21.3989V20.2882H83.4785V28.1195C83.4785 28.8412 83.3329 29.4927 83.0417 30.0738C82.7599 30.6643 82.3232 31.133 81.7315 31.4798C81.1491 31.8266 80.4212 32 79.5477 32C78.383 32 77.4391 31.7235 76.7159 31.1705C75.9926 30.6268 75.5794 29.8863 75.4761 28.949H77.8571C77.9322 29.249 78.1107 29.4833 78.3924 29.652C78.6742 29.8301 79.0217 29.9192 79.435 29.9192C79.9328 29.9192 80.3273 29.7739 80.6184 29.4833C80.919 29.2021 81.0693 28.7475 81.0693 28.1195V27.0088C80.8345 27.3743 80.5104 27.6743 80.0972 27.9086C79.6839 28.1336 79.2002 28.246 78.646 28.246C77.9979 28.246 77.4109 28.082 76.8849 27.754C76.3589 27.4165 75.941 26.9432 75.631 26.3339C75.3305 25.7153 75.1802 25.0029 75.1802 24.1968C75.1802 23.3907 75.3305 22.6831 75.631 22.0738C75.941 21.4646 76.3589 20.9959 76.8849 20.6678C77.4109 20.3398 77.9979 20.1757 78.646 20.1757ZM81.0693 24.2109C81.0693 23.611 80.9002 23.1377 80.5621 22.7909C80.2334 22.4441 79.8295 22.2706 79.3505 22.2706C78.8714 22.2706 78.4629 22.4441 78.1247 22.7909C77.796 23.1283 77.6316 23.597 77.6316 24.1968C77.6316 24.7967 77.796 25.2747 78.1247 25.6309C78.4629 25.9777 78.8714 26.1511 79.3505 26.1511C79.8295 26.1511 80.2334 25.9777 80.5621 25.6309C80.9002 25.2841 81.0693 24.8108 81.0693 24.2109Z" fill="#121420"/>
<path d="M93.3128 3H91L92.4802 0H94L93.3128 3Z" fill="#121420"/>
</svg>
