<svg width="27" height="22" viewBox="0 0 27 22" fill="none" xmlns="http://www.w3.org/2000/svg">
<path d="M27.0002 2.94689C26.0439 3.35939 25.0033 3.65626 23.9314 3.77189C25.0443 3.11075 25.8777 2.06626 26.2752 0.834388C25.2309 1.4556 24.0869 1.89121 22.8939 2.12189C22.3953 1.58885 21.7923 1.1642 21.1224 0.874411C20.4525 0.584623 19.7301 0.435901 19.0002 0.437513C16.0471 0.437513 13.6721 2.83126 13.6721 5.76876C13.6721 6.18126 13.7221 6.59376 13.8033 6.99064C9.38144 6.75939 5.4377 4.64689 2.81582 1.41251C2.33809 2.2285 2.08774 3.15759 2.09082 4.10314C2.09082 5.95314 3.03144 7.58439 4.46582 8.54376C3.62052 8.51047 2.79502 8.27813 2.05645 7.86564V7.93126C2.05645 10.5219 3.8877 12.6688 6.32832 13.1625C5.87007 13.2815 5.39865 13.3424 4.9252 13.3438C4.57832 13.3438 4.25019 13.3094 3.91894 13.2625C4.59394 15.375 6.55957 16.9094 8.90019 16.9594C7.06894 18.3938 4.7752 19.2375 2.28457 19.2375C1.8377 19.2375 1.4252 19.2219 0.99707 19.1719C3.35957 20.6875 6.16269 21.5625 9.18144 21.5625C18.9814 21.5625 24.3439 13.4438 24.3439 6.39689C24.3439 6.16564 24.3439 5.93439 24.3283 5.70314C25.3658 4.94376 26.2752 4.00314 27.0002 2.94689Z" fill="#121420"/>
</svg>
